<svg xmlns="http://www.w3.org/2000/svg" viewBox="0 0 142.05 142.06"><defs><style>.cls-1{fill:#fec00f;}.cls-2{fill:#f99b1c;}.cls-3{fill:#2c5871;}.cls-4{fill:#fff;}.cls-5{fill:#15b0bf;}</style></defs><title>Asset 3</title><g id="Layer_2" data-name="Layer 2"><g id="Layer_4" data-name="Layer 4"><circle class="cls-1" cx="71.03" cy="71.03" r="71.03" transform="translate(-0.73 141.32) rotate(-89.41)"/></g><g id="Layer_3" data-name="Layer 3"><path class="cls-2" d="M111,51.93a2.88,2.88,0,0,0-2.52-1.56H96.06L85.82,40.12a2.08,2.08,0,0,0-.21-.21l-.14-.14h0a2.79,2.79,0,0,0-1.77-.65H27.86a3,3,0,0,0-2.93,3.14V77.92a3.25,3.25,0,0,0,1,2.32l-.17.16,7.81,7.81v4.62l-.1.1L81.71,141.2a71.05,71.05,0,0,0,59.42-59.1Z"/><path class="cls-3" d="M111.37,89.15a3,3,0,0,1-2.93,3.14h-5.68v11.78L88.85,92.29H52.61a3,3,0,0,1-2.93-3.14V53.51a3,3,0,0,1,2.93-3.14h55.83a3,3,0,0,1,2.93,3.14Z"/><path class="cls-4" d="M24.93,77.92a3,3,0,0,0,2.93,3.14h5.68V92.84L47.45,81.06H83.69a3,3,0,0,0,2.93-3.14V42.27a3,3,0,0,0-2.93-3.14H27.86a3,3,0,0,0-2.93,3.14Z"/><rect class="cls-5" x="34.17" y="50.58" width="43.21" height="2.7"/><rect class="cls-5" x="34.17" y="59.12" width="43.21" height="2.7"/><rect class="cls-5" x="34.17" y="67.66" width="33.63" height="2.7"/></g></g></svg>