<svg xmlns="http://www.w3.org/2000/svg" viewBox="0 0 142.05 142.06"><defs><style>.cls-1{fill:#15b0bf;}.cls-2{fill:#1695a4;}.cls-3{fill:#fff;}.cls-4{fill:#d1ecfb;}.cls-5{fill:#0e303f;}.cls-6{fill:#2c5871;}.cls-7{fill:#f99b1c;}.cls-8{fill:#fec00f;}</style></defs><title>Asset 5</title><g id="Layer_2" data-name="Layer 2"><g id="Layer_4" data-name="Layer 4"><circle class="cls-1" cx="71.03" cy="71.03" r="71.03" transform="translate(-0.72 141.33) rotate(-89.42)"/></g><g id="Layer_3" data-name="Layer 3"><path class="cls-2" d="M79.87,141.48A71,71,0,0,0,138,94.53L90.3,46.82A28.74,28.74,0,0,0,38.54,64v2.57L29.82,85l-.09.08,0,0v0h0L39.62,95a2.76,2.76,0,0,0,1.47,2.1v1a11,11,0,0,0,3.27,7.83l0,0Z"/><path class="cls-3" d="M67.27,35.28A28.73,28.73,0,0,0,38.54,64v2.57L29.76,85.17h9.18a28.31,28.31,0,0,0,1,4,2.73,2.73,0,0,0-.68,1.8,2.77,2.77,0,0,0,.9,2,2.78,2.78,0,0,0,1,4.11v1a11,11,0,0,0,11,11H96V64A28.73,28.73,0,0,0,67.27,35.28Z"/><circle class="cls-4" cx="52.86" cy="83.88" r="7.78"/><path class="cls-5" d="M48.41,67a1.65,1.65,0,0,1-3.29,0,1.65,1.65,0,1,1,3.29,0Z"/><path class="cls-5" d="M92.48,45.14H90.25a17.21,17.21,0,0,0-.65-2.29l1.87-1.08a1,1,0,0,0,.34-1.29l-1.87-3.25a1,1,0,0,0-1.29-.34L86.71,38A16.76,16.76,0,0,0,85,36.35l1.09-1.87a1,1,0,0,0-.35-1.29l-3.25-1.87a.93.93,0,0,0-1.28.34l-1.12,1.95A15,15,0,0,0,77.78,33V30.85a1,1,0,0,0-.94-.94H73.09a1,1,0,0,0-.94.94V33.1a14.94,14.94,0,0,0-2.29.64l-1.08-1.87a1,1,0,0,0-1.29-.35L64.24,33.4a.94.94,0,0,0-.34,1.28l1.13,2a14.79,14.79,0,0,0-1.66,1.7l-1.88-1.08a.94.94,0,0,0-1.28.35l-1.88,3.25a.94.94,0,0,0,.34,1.28l1.95,1.12a14.92,14.92,0,0,0-.59,2.3H57.87a1,1,0,0,0-.94.94v3.76a.93.93,0,0,0,.94.93h2.24a15.94,15.94,0,0,0,.64,2.3l-1.87,1.08a.93.93,0,0,0-.34,1.28l1.87,3.25a1,1,0,0,0,1.29.35l1.94-1.13A14.88,14.88,0,0,0,65.35,60l-1.09,1.88a.94.94,0,0,0,.35,1.28L67.86,65a.94.94,0,0,0,1.28-.34l1.12-2a15,15,0,0,0,2.31.58v2.17a.94.94,0,0,0,.93.94h3.76a.94.94,0,0,0,.94-.94V63.23a16.17,16.17,0,0,0,2.29-.64l1.08,1.87a.93.93,0,0,0,1.28.34l3.26-1.88a.94.94,0,0,0,.34-1.28l-1.13-2A14.9,14.9,0,0,0,87,58l1.87,1.09a.94.94,0,0,0,1.28-.35L92,55.48a.94.94,0,0,0-.34-1.28l-2-1.12a15,15,0,0,0,.59-2.31h2.16a.94.94,0,0,0,.94-.94V46.08A.94.94,0,0,0,92.48,45.14ZM75.18,55.65a7.49,7.49,0,1,1,7.48-7.49A7.49,7.49,0,0,1,75.18,55.65Z"/><path class="cls-6" d="M74.85,57.89a9.73,9.73,0,0,1,0-19.45V29.91H73.09a1,1,0,0,0-.94.94V33.1a14.94,14.94,0,0,0-2.29.64l-1.08-1.87a1,1,0,0,0-1.29-.35L64.24,33.4a.94.94,0,0,0-.34,1.28l1.13,2a14.79,14.79,0,0,0-1.66,1.7l-1.88-1.08a.94.94,0,0,0-1.28.35l-1.88,3.25a.94.94,0,0,0,.34,1.28l1.95,1.12a14.92,14.92,0,0,0-.59,2.3H57.87a1,1,0,0,0-.94.94v3.76a.93.93,0,0,0,.94.93h2.24a15.94,15.94,0,0,0,.64,2.3l-1.87,1.08a.93.93,0,0,0-.34,1.28l1.87,3.25a1,1,0,0,0,1.29.35l1.94-1.13A14.88,14.88,0,0,0,65.35,60l-1.09,1.88a.94.94,0,0,0,.35,1.28L67.86,65a.94.94,0,0,0,1.28-.34l1.12-2a15,15,0,0,0,2.31.58v2.17a.94.94,0,0,0,.93.94h1.35Z"/><path class="cls-5" d="M75.17,36.31A11.86,11.86,0,1,0,87,48.16,11.85,11.85,0,0,0,75.17,36.31Zm0,21.59a9.74,9.74,0,1,1,9.73-9.74A9.74,9.74,0,0,1,75.18,57.9Z"/><path class="cls-6" d="M75.17,36.31h-.32v2.13h.33a9.74,9.74,0,0,1,0,19.47h-.33V60h.32a11.86,11.86,0,1,0,0-23.71Z"/><path class="cls-6" d="M75.17,38.24H74.9V40h.28a8.16,8.16,0,0,1,0,16.31H74.9v1.78h.27a9.93,9.93,0,1,0,0-19.85Z"/><path class="cls-7" d="M103,27.18h-1.37a.86.86,0,0,1-.75-.55l-.26-.61a.86.86,0,0,1,.15-.92l1-1a.56.56,0,0,0,0-.81l-1.48-1.49a.59.59,0,0,0-.82,0l-1,1a.84.84,0,0,1-.92.15l-.62-.25a.86.86,0,0,1-.54-.76V20.57a.58.58,0,0,0-.57-.57H93.67a.57.57,0,0,0-.57.57v1.36a.86.86,0,0,1-.55.76l-.61.25a.84.84,0,0,1-.92-.15l-1-1a.58.58,0,0,0-.81,0l-1.49,1.49a.58.58,0,0,0,0,.81l1,1a.86.86,0,0,1,.16.92l-.26.61a.86.86,0,0,1-.76.55H86.49a.57.57,0,0,0-.57.57v2.11a.58.58,0,0,0,.57.57h1.36a.86.86,0,0,1,.76.54l.26.62a.86.86,0,0,1-.16.92l-1,1a.59.59,0,0,0,0,.82l1.49,1.49a.58.58,0,0,0,.81,0l1-1a.86.86,0,0,1,.92-.15l.61.26a.86.86,0,0,1,.55.75V37a.57.57,0,0,0,.57.57h2.11a.58.58,0,0,0,.57-.57V35.67a.86.86,0,0,1,.54-.75l.62-.26a.86.86,0,0,1,.92.15l1,1a.59.59,0,0,0,.82,0l1.48-1.49a.57.57,0,0,0,0-.82l-1-1a.86.86,0,0,1-.15-.92l.26-.62a.86.86,0,0,1,.75-.54H103a.58.58,0,0,0,.57-.57V27.75A.57.57,0,0,0,103,27.18Zm-8.24,4.4A2.78,2.78,0,1,1,97.5,28.8,2.77,2.77,0,0,1,94.72,31.58Z"/><path class="cls-8" d="M94.75,31.58h0a2.78,2.78,0,0,1,0-5.55h0V20H93.67a.57.57,0,0,0-.57.57v1.36a.86.86,0,0,1-.55.76l-.61.25a.84.84,0,0,1-.92-.15l-1-1a.58.58,0,0,0-.81,0l-1.49,1.49a.58.58,0,0,0,0,.81l1,1a.86.86,0,0,1,.16.92l-.26.61a.86.86,0,0,1-.76.55H86.49a.57.57,0,0,0-.57.57v2.11a.58.58,0,0,0,.57.57h1.36a.86.86,0,0,1,.76.54l.26.62a.86.86,0,0,1-.16.92l-1,1a.59.59,0,0,0,0,.82l1.49,1.49a.58.58,0,0,0,.81,0l1-1a.86.86,0,0,1,.92-.15l.61.26a.86.86,0,0,1,.55.75V37a.57.57,0,0,0,.57.57h1.08Z"/></g></g></svg>