<svg xmlns="http://www.w3.org/2000/svg" viewBox="0 0 142.06 142.06"><defs><style>.cls-1{fill:#a6dae9;}.cls-2{fill:#0e303f;}.cls-3{fill:#2c5871;}.cls-4{fill:#fec00f;}.cls-5{fill:#f99b1c;}</style></defs><title>Asset 8</title><g id="Layer_2" data-name="Layer 2"><g id="Layer_4" data-name="Layer 4"><circle class="cls-1" cx="71.03" cy="71.03" r="71.03" transform="translate(-13.87 17.34) rotate(-12.69)"/></g><g id="Layer_3" data-name="Layer 3"><path class="cls-2" d="M83.25,41.39c-.34.69-1,1.06-1.49.84a29.19,29.19,0,0,0-23.93,0c-.49.22-1.15-.15-1.5-.84,0,0,0-.1-.07-.16a1.21,1.21,0,0,1,.35-1.7,32.13,32.13,0,0,1,26.36,0,1.22,1.22,0,0,1,.36,1.7C83.3,41.29,83.28,41.34,83.25,41.39Z"/><path class="cls-3" d="M83,39.53a32.13,32.13,0,0,0-26.36,0,1.21,1.21,0,0,0-.35,1.7,30.79,30.79,0,0,1,27.07,0A1.22,1.22,0,0,0,83,39.53Z"/><rect class="cls-4" x="57.1" y="40.58" width="2" height="9.68" rx="0.92" ry="0.92"/><path class="cls-4" d="M60.33,45.88a2.23,2.23,0,1,1-2.23-2.22A2.23,2.23,0,0,1,60.33,45.88Z"/><rect class="cls-4" x="80.49" y="40.58" width="2" height="9.68" rx="0.92" ry="0.92"/><path class="cls-4" d="M83.71,45.88a2.23,2.23,0,1,1-2.22-2.22A2.22,2.22,0,0,1,83.71,45.88Z"/><path class="cls-2" d="M30.47,45.81h78.64a2.76,2.76,0,0,1,2.76,2.76v51a2.77,2.77,0,0,1-2.77,2.77H30.47a2.77,2.77,0,0,1-2.77-2.77v-51A2.77,2.77,0,0,1,30.47,45.81Z"/><path class="cls-3" d="M111.88,67.31a3.74,3.74,0,0,1-2.73,3.44,169.17,169.17,0,0,1-78.72,0,3.73,3.73,0,0,1-2.72-3.44V48.57a2.77,2.77,0,0,1,2.76-2.76h78.64a2.77,2.77,0,0,1,2.77,2.76Z"/><path class="cls-2" d="M69.79,73.55A167.89,167.89,0,0,1,30.86,69a1.89,1.89,0,0,1-1.31-1.65V48.57a.93.93,0,0,1,.93-.92h78.63a.93.93,0,0,1,.93.92V67.31A1.9,1.9,0,0,1,108.72,69a167.83,167.83,0,0,1-38.93,4.59Z"/><path class="cls-3" d="M69.79,70.79a173.16,173.16,0,0,1-37.25-4.1,1.9,1.9,0,0,1-1.36-1.48q-.55-8.37-1.13-16.74a.81.81,0,0,1,.87-.82h77.76a.81.81,0,0,1,.85.82q-.57,8.37-1.13,16.74A1.9,1.9,0,0,1,107,66.69a173.09,173.09,0,0,1-37.25,4.1Z"/><path class="cls-2" d="M64.42,45.65V70.17c0,1.22.41,2.21.92,2.21h8.91c.5,0,.92-1,.92-2.21V45.65Z"/><path class="cls-3" d="M65.72,45.65V70.17a11.27,11.27,0,0,0,.11,2.21h1a12.91,12.91,0,0,0,.1-2.21V45.65Z"/><path class="cls-3" d="M72.64,45.65V70.17a11.8,11.8,0,0,0,.1,2.21h1a11.8,11.8,0,0,0,.1-2.21V45.65Z"/><path class="cls-4" d="M74.55,81.14a1.23,1.23,0,0,1-.79,1.09,13.56,13.56,0,0,1-7.93,0,1.23,1.23,0,0,1-.8-1.09V71.61a1.22,1.22,0,0,1,.8-1.08,13.4,13.4,0,0,1,7.93,0,1.22,1.22,0,0,1,.79,1.08Z"/><path class="cls-5" d="M73.76,70.85a14.26,14.26,0,0,0-7.93,0,1.15,1.15,0,0,0-.8,1V76l.09,0h9.43V71.87A1.15,1.15,0,0,0,73.76,70.85Z"/><path class="cls-5" d="M65,76.92v4.22a1.23,1.23,0,0,0,.8,1.09,13.56,13.56,0,0,0,7.93,0,1.23,1.23,0,0,0,.79-1.09V76.92Z"/><path class="cls-4" d="M69.79,82a12.71,12.71,0,0,1-3.72-.56.44.44,0,0,1-.22-.31V77.73h7.89v3.41a.43.43,0,0,1-.23.31,12.61,12.61,0,0,1-3.72.56Z"/></g></g></svg>