<svg xmlns="http://www.w3.org/2000/svg" viewBox="0 0 142.05 142.06"><defs><style>.cls-1{fill:#a6dae9;}.cls-2{fill:#f99b1c;}.cls-3{fill:#fec00f;}.cls-4{fill:#0e303f;}.cls-5{fill:#d1ecfb;}.cls-6{fill:#fff;}.cls-7{fill:#2c5871;}</style></defs><title>Asset 2</title><g id="Layer_2" data-name="Layer 2"><g id="Layer_4" data-name="Layer 4"><circle class="cls-1" cx="71.03" cy="71.03" r="71.03" transform="translate(-0.68 141.37) rotate(-89.45)"/></g><g id="Layer_3" data-name="Layer 3"><path class="cls-2" d="M112,111.94a0,0,0,0,0,0,0,7,7,0,0,1-9.85,0L80.92,90.59a7,7,0,0,1,0-9.84s0,0,0,0a7,7,0,0,1,9.85,0L112,102.1a7,7,0,0,1,0,9.84Z"/><path class="cls-3" d="M109,111.81a2.71,2.71,0,0,1-3.81,0L84,90.45a2.69,2.69,0,0,1,3.82-3.8L109,108a2.7,2.7,0,0,1,0,3.81Z"/><path class="cls-4" d="M39.5,39.23h0a27.17,27.17,0,1,1-8,19.18,27.05,27.05,0,0,1,8-19.18Z"/><path class="cls-5" d="M44.43,44.15A20.24,20.24,0,1,0,73.07,72.77h0A20.24,20.24,0,1,0,44.43,44.15Z"/><path class="cls-6" d="M73.08,44.17a20.09,20.09,0,0,0-14.3-6,19.51,19.51,0,0,0-4.47.49A20.34,20.34,0,0,0,42.37,57.14,20.27,20.27,0,0,0,62.58,77.43a20.68,20.68,0,0,0,4.47-.49,20.4,20.4,0,0,0,6-4.17h0a20.22,20.22,0,0,0,0-28.6Z"/><path class="cls-4" d="M83.67,83.6a3.47,3.47,0,0,1-4.92,0l-4.34-4.47a3.49,3.49,0,0,1,0-4.92h0a3.5,3.5,0,0,1,4.93,0l4.33,4.48a3.48,3.48,0,0,1,0,4.92Z"/><path class="cls-7" d="M58.79,32.78a25.68,25.68,0,0,1,0,51.36h0V80.72h0a22.26,22.26,0,0,0,0-44.51V32.78Z"/></g></g></svg>