<svg xmlns="http://www.w3.org/2000/svg" viewBox="0 0 142.05 142.06"><defs><style>.cls-1{fill:#2c5871;}.cls-2{fill:#0e303f;}.cls-3{fill:#fec00f;}.cls-4{fill:#f99b1c;}.cls-5{fill:#fff;}.cls-6{fill:#d1ecfb;}</style></defs><title>Asset 4</title><g id="Layer_2" data-name="Layer 2"><g id="Layer_4" data-name="Layer 4"><path class="cls-1" d="M71,142.06a71,71,0,1,1,71-71A71,71,0,0,1,71,142.06Z"/></g><g id="Layer_3" data-name="Layer 3"><path class="cls-2" d="M140.54,85.67,97.62,42.76l0,0A37.46,37.46,0,0,0,42.24,93.24l-8.66,16.42-.21.22L65.3,141.81c1.89.15,3.8.25,5.73.25A71.06,71.06,0,0,0,140.54,85.67Z"/><path class="cls-3" d="M70.81,31.53A37.45,37.45,0,0,0,42.24,93.24l-8.73,16.57L49.39,99.74A37.47,37.47,0,1,0,70.81,31.53Z"/><path class="cls-4" d="M70.81,31.53h-.38v74.94h.38a37.48,37.48,0,0,0,0-75Z"/><path class="cls-5" d="M67.45,94.89v-6a26.67,26.67,0,0,1-10.79-2.73l1.9-7.42A22.35,22.35,0,0,0,69.09,81.5c3.68,0,6.15-1.46,6.15-3.93s-2-3.94-6.79-5.52C61.67,69.76,57,66.6,57,60.45c0-5.65,3.93-10,10.71-11.29v-6H74v5.58a22.93,22.93,0,0,1,9.27,2.1L81.33,58a19.7,19.7,0,0,0-9.13-2.22c-4.12,0-5.46,1.84-5.46,3.61,0,2,2.22,3.43,7.68,5.39C82,67.42,85,70.91,85,76.68S81,87.15,73.72,88.35v6.54Z"/><path class="cls-6" d="M74.42,64.75a42.93,42.93,0,0,1-4-1.61v9.63c3.35,1.35,4.81,2.76,4.81,4.8s-1.88,3.55-4.81,3.86V94.89h3.29V88.35C81,87.15,85,82.33,85,76.68S82,67.42,74.42,64.75Z"/><path class="cls-6" d="M70.43,43.13V55.89a10.33,10.33,0,0,1,1.77-.14A19.7,19.7,0,0,1,81.33,58l1.91-7.16A22.93,22.93,0,0,0,74,48.71V43.13Z"/></g></g></svg>