<svg xmlns="http://www.w3.org/2000/svg" viewBox="0 0 142.06 142.06"><defs><style>.cls-1{fill:#2c5871;}.cls-2{fill:#0e303f;}.cls-3{fill:#f99b1c;}.cls-4{fill:#fec00f;}.cls-5{fill:#15b0bf;}.cls-6{fill:#1695a4;}</style></defs><title>Asset 1</title><g id="Layer_2" data-name="Layer 2"><g id="Layer_4" data-name="Layer 4"><circle class="cls-1" cx="71.03" cy="71.03" r="71.03" transform="translate(-12.42 15.11) rotate(-11.17)"/></g><g id="Layer_3" data-name="Layer 3"><path class="cls-2" d="M64.38,85.78v1.87H59.92a2,2,0,0,0-1.79,2.16V91.4h-3.7v17.26H53v4.26l-.09.09,28.32,28.31A71,71,0,0,0,141.87,76L102.18,36.32H92l-1.87-1.88-.08.08H55.36c-.18.59-.33,1.19-.48,1.8H43.34L43.24,38c0,.56-.05,1.11-.05,1.67a30.06,30.06,0,0,0,8.46,21.19l0,0L70.06,79.4v6.38Z"/><rect class="cls-3" x="64.38" y="85.78" width="16.76" height="5.69"/><path class="cls-3" d="M55.36,34.53a33.54,33.54,0,0,0-1.46,9.78A32.87,32.87,0,0,0,72.76,74.2,32.87,32.87,0,0,0,91.61,44.31a33.54,33.54,0,0,0-1.46-9.78Z"/><path class="cls-4" d="M69.23,68.72l-2-.22c-13.71-1.47-24-13.85-24-28.81,0-.56,0-1.11.05-1.67l.1-1.69H69.23V68.72ZM46.79,39.92c.09,12.27,8,22.52,18.85,24.7V39.92Z"/><path class="cls-3" d="M76.28,68.72V36.33h25.9l.09,1.7c0,.55,0,1.1,0,1.66,0,15-10.34,27.34-24,28.81l-2,.22Zm3.59-28.8v24.7c10.81-2.18,18.76-12.43,18.85-24.7Z"/><rect class="cls-3" x="70.06" y="67.3" width="5.39" height="22.44"/><path class="cls-3" d="M87.39,91.61v-1.8a2,2,0,0,0-1.8-2.16H59.92a2,2,0,0,0-1.79,2.16v1.8Z"/><path class="cls-4" d="M55.36,34.53a33.54,33.54,0,0,0-1.46,9.78A32.9,32.9,0,0,0,70.06,72.76v13h2.49V34.53Z"/><path class="cls-4" d="M64.38,87.65H59.92a2,2,0,0,0-1.79,2.16v1.8H72.55v-4H64.38Z"/><rect class="cls-5" x="54.43" y="91.4" width="36.66" height="18.07"/><rect class="cls-6" x="58.73" y="95.71" width="28.05" height="9.47"/><rect class="cls-6" x="52.98" y="108.66" width="39.55" height="4.38"/></g></g></svg>
