<svg xmlns="http://www.w3.org/2000/svg" viewBox="0 0 500 93.26"><defs><style>.cls-1{fill:#999;}.cls-2{fill:#00efe7;}.cls-3{fill:#00cbf8;}</style></defs><title>Asset 2</title><g id="Layer_2" data-name="Layer 2"><g id="Layer_1-2" data-name="Layer 1"><path class="cls-1" d="M237.77,77.13V79.2h-3.13v8.15a23.44,23.44,0,0,1-2.66.35c-1.15.11-2.26.16-3.33.16a15.94,15.94,0,0,1-5.11-.62,4,4,0,0,1-2.35-1.74,6.18,6.18,0,0,1-.58-2.87,6,6,0,0,1,.38-2.38,3,3,0,0,1,1.1-1.36,5.74,5.74,0,0,1,1.92-.75V78a4.2,4.2,0,0,1-2.46-1.42,4.84,4.84,0,0,1-.78-3A5,5,0,0,1,221.4,71a4.26,4.26,0,0,1,2.35-1.69,14.84,14.84,0,0,1,4.87-.63q1.31,0,3,.15c1.11.1,2.09.23,2.94.37v1.94c-.83-.11-1.75-.2-2.74-.27s-1.82-.11-2.49-.11a19.29,19.29,0,0,0-4.07.3,2.68,2.68,0,0,0-1.76,1,3.65,3.65,0,0,0-.44,2,4.73,4.73,0,0,0,.25,1.63,2,2,0,0,0,1.07,1.08,5.85,5.85,0,0,0,2.52.42h2.62V79.2h-2.62a7.14,7.14,0,0,0-2.62.36,1.83,1.83,0,0,0-1.12,1,5.74,5.74,0,0,0-.26,1.93,3.19,3.19,0,0,0,.59,2.12,3.08,3.08,0,0,0,1.79.94,18.53,18.53,0,0,0,3.4.24,33.61,33.61,0,0,0,3.78-.19v-8.5Z"/><path class="cls-1" d="M257.21,87.77c-.84.06-1.63.09-2.35.09a12.34,12.34,0,0,1-4.94-.73,3.94,3.94,0,0,1-2.08-2.68,26,26,0,0,1-.53-6.18,25.91,25.91,0,0,1,.53-6.15,3.94,3.94,0,0,1,2.08-2.7,12.3,12.3,0,0,1,4.94-.74c.74,0,1.52,0,2.34.11a15,15,0,0,1,2,.3v2a27.34,27.34,0,0,0-3.76-.27,12.64,12.64,0,0,0-4,.43A2.48,2.48,0,0,0,250,73.18a24.22,24.22,0,0,0-.36,5.09,24.27,24.27,0,0,0,.36,5.1,2.48,2.48,0,0,0,1.48,1.88,12.56,12.56,0,0,0,4,.44,24.43,24.43,0,0,0,3.87-.28v2.1A20.43,20.43,0,0,1,257.21,87.77Z"/><path class="cls-1" d="M264.58,87.28a2.81,2.81,0,0,1-1.59-2,21.51,21.51,0,0,1-.34-4.59,21.51,21.51,0,0,1,.34-4.59,2.81,2.81,0,0,1,1.59-2,10.68,10.68,0,0,1,4.17-.59,10.51,10.51,0,0,1,4.14.59,2.8,2.8,0,0,1,1.6,2,22.2,22.2,0,0,1,.34,4.59,22.2,22.2,0,0,1-.34,4.59,2.8,2.8,0,0,1-1.6,2,10.55,10.55,0,0,1-4.14.58A10.72,10.72,0,0,1,264.58,87.28Zm6.92-1.78a1.69,1.69,0,0,0,.95-1.3,23.93,23.93,0,0,0,.17-3.5,23.93,23.93,0,0,0-.17-3.5,1.65,1.65,0,0,0-.95-1.29,7.15,7.15,0,0,0-2.75-.36,7.28,7.28,0,0,0-2.76.36,1.64,1.64,0,0,0-1,1.29,23.93,23.93,0,0,0-.17,3.5,23.93,23.93,0,0,0,.17,3.5,1.67,1.67,0,0,0,1,1.3,7.54,7.54,0,0,0,2.76.35A7.41,7.41,0,0,0,271.5,85.5Z"/><path class="cls-1" d="M288.37,79.83a11.2,11.2,0,0,0-.24-2.77,1.61,1.61,0,0,0-.93-1.1,6.84,6.84,0,0,0-2.29-.27,4.63,4.63,0,0,0-2.52.54,2.35,2.35,0,0,0-1,1.5,14.58,14.58,0,0,0-.2,2.75v7.17H279V73.75h2l.11,2h.17a3.27,3.27,0,0,1,1.52-1.62,6.8,6.8,0,0,1,3.08-.56,6.28,6.28,0,0,1,3,.58,2.81,2.81,0,0,1,1.37,1.7,10.76,10.76,0,0,1,.36,3.14v8.7h-2.21Z"/><path class="cls-1" d="M297.36,87.76c-.94-.07-1.78-.16-2.5-.25v-2a44.76,44.76,0,0,0,4.93.3,7.84,7.84,0,0,0,2-.19,1.27,1.27,0,0,0,.86-.62,3,3,0,0,0,.2-1.26,3.48,3.48,0,0,0-.15-1.21.88.88,0,0,0-.47-.51,4.81,4.81,0,0,0-1.15-.22l-3.62-.4a4.23,4.23,0,0,1-1.92-.58,2.16,2.16,0,0,1-.91-1.19,6.68,6.68,0,0,1-.25-2,4.54,4.54,0,0,1,.64-2.66,3,3,0,0,1,1.77-1.15,13.59,13.59,0,0,1,3-.28c.71,0,1.47,0,2.29.11s1.51.17,2.07.27v2a28.61,28.61,0,0,0-4.39-.33,11.24,11.24,0,0,0-1.9.12,1.64,1.64,0,0,0-1,.55,2,2,0,0,0-.36,1.32,3.51,3.51,0,0,0,.14,1.15.89.89,0,0,0,.46.49,4.23,4.23,0,0,0,1.09.21l3.76.44a5.37,5.37,0,0,1,1.81.45,1.9,1.9,0,0,1,.9,1.1,7.32,7.32,0,0,1,.29,2.35,5,5,0,0,1-.56,2.61,2.76,2.76,0,0,1-1.63,1.21,10.91,10.91,0,0,1-2.93.31C299.15,87.86,298.31,87.83,297.36,87.76Z"/><path class="cls-1" d="M318.4,85.69h-.17a3.23,3.23,0,0,1-1.52,1.62,6.84,6.84,0,0,1-3.08.55,6.3,6.3,0,0,1-3-.57,2.89,2.89,0,0,1-1.38-1.7,11.21,11.21,0,0,1-.35-3.15V73.75h2.21v7.82a11.2,11.2,0,0,0,.23,2.78,1.52,1.52,0,0,0,.91,1.09,6.84,6.84,0,0,0,2.29.27,4.63,4.63,0,0,0,2.52-.54,2.36,2.36,0,0,0,1-1.51,12.9,12.9,0,0,0,.22-2.74V73.75h2.21v13.9h-2Z"/><path class="cls-1" d="M325.21,87.65V67.4h2.21V87.65Z"/><path class="cls-1" d="M333.27,87.65V75.77h-2.8v-2h2.8v-4h2.21v4h3.33v2h-3.33V87.65Z"/><path class="cls-1" d="M341.83,69.94V67.4h2.34v2.54Zm.08,17.71V73.75h2.21v13.9Z"/><path class="cls-1" d="M358.23,79.83a11.2,11.2,0,0,0-.24-2.77,1.61,1.61,0,0,0-.93-1.1,6.84,6.84,0,0,0-2.29-.27,4.63,4.63,0,0,0-2.52.54,2.39,2.39,0,0,0-1,1.5,14.58,14.58,0,0,0-.2,2.75v7.17h-2.21V73.75h2l.11,2h.17a3.32,3.32,0,0,1,1.52-1.62,6.82,6.82,0,0,1,3.08-.56,6.25,6.25,0,0,1,3,.58,2.86,2.86,0,0,1,1.38,1.7,11.18,11.18,0,0,1,.35,3.14v8.7h-2.21Z"/><path class="cls-1" d="M365.32,93V91.08c1.74.11,3.22.16,4.44.16a8.64,8.64,0,0,0,3-.38A2,2,0,0,0,374,89.51a11.89,11.89,0,0,0,.29-3.09v-.6h-.14a3,3,0,0,1-1.62,1.52,7.84,7.84,0,0,1-2.85.45,6.55,6.55,0,0,1-3.18-.62A3.34,3.34,0,0,1,365,85.06a16.54,16.54,0,0,1-.44-4.36,16.81,16.81,0,0,1,.45-4.4,3.49,3.49,0,0,1,1.54-2.14,6.42,6.42,0,0,1,3.16-.63,7.8,7.8,0,0,1,2.85.47,3.06,3.06,0,0,1,1.73,1.71h.17l.08-2h2V85.88a17.05,17.05,0,0,1-.43,4.44,3.48,3.48,0,0,1-1.75,2.22,9,9,0,0,1-4.12.72A42.34,42.34,0,0,1,365.32,93Zm7.39-7.7a2.05,2.05,0,0,0,1.13-1,4.4,4.4,0,0,0,.37-1.42,18,18,0,0,0,.1-2.18c0-.92,0-1.65-.07-2.16a3.87,3.87,0,0,0-.34-1.33A2.23,2.23,0,0,0,372.73,76a5.71,5.71,0,0,0-2.18-.35A6.62,6.62,0,0,0,368,76a1.85,1.85,0,0,0-1,1.34,15,15,0,0,0-.26,3.33A14.81,14.81,0,0,0,367,84a1.85,1.85,0,0,0,1,1.34,6.62,6.62,0,0,0,2.51.34A5.55,5.55,0,0,0,372.71,85.32Z"/><path class="cls-2" d="M104.94,58.79c-2.55-.14-4.79-.35-6.71-.61V52.7q6.81.66,11.85.66a32.67,32.67,0,0,0,4.66-.25,6.82,6.82,0,0,0,2.61-.86,2.54,2.54,0,0,0,1.15-1.58,10.94,10.94,0,0,0,.29-2.91,13.23,13.23,0,0,0-.25-3,2.15,2.15,0,0,0-1.05-1.38,7.26,7.26,0,0,0-2.7-.61l-9.08-1.06A11.56,11.56,0,0,1,100.37,40a6.69,6.69,0,0,1-2.56-3.47,18.34,18.34,0,0,1-.69-5.48c0-3.14.57-5.52,1.69-7.13a7.94,7.94,0,0,1,4.63-3.18,30.69,30.69,0,0,1,7.65-.78c2.14,0,4.33.1,6.59.3a49,49,0,0,1,5.48.76v5.32c-1.36-.23-3.06-.4-5.09-.53s-4-.19-5.76-.19a37.87,37.87,0,0,0-4.66.22,7.13,7.13,0,0,0-2.66.78,2.52,2.52,0,0,0-1.28,1.46,9.72,9.72,0,0,0-.27,2.69,10.13,10.13,0,0,0,.27,2.85,2,2,0,0,0,1.14,1.25,10.22,10.22,0,0,0,2.8.61l9.14,1a13.79,13.79,0,0,1,4.63,1.14,5.52,5.52,0,0,1,2.63,3,17.2,17.2,0,0,1,1,6.76c0,3.37-.54,5.88-1.61,7.56a7.33,7.33,0,0,1-4.32,3.28,28.45,28.45,0,0,1-7.2.74Q108.76,59,104.94,58.79Z"/><path class="cls-2" d="M131.42,30.31h5.43L137,34h.39a6.35,6.35,0,0,1,3.46-3.27,14.79,14.79,0,0,1,5.34-.89,11.7,11.7,0,0,1,6,1.31,7.36,7.36,0,0,1,3.11,4.4,31.91,31.91,0,0,1,.94,8.82,33,33,0,0,1-.92,8.83,7.49,7.49,0,0,1-3,4.46A11.12,11.12,0,0,1,146.43,59,15.56,15.56,0,0,1,141,58.2a6.17,6.17,0,0,1-3.33-2.9h-.39V69.59h-5.87Zm16.82,22.53A3.24,3.24,0,0,0,150,50.48a28,28,0,0,0,.44-6,28.4,28.4,0,0,0-.44-6.07A3.22,3.22,0,0,0,148.24,36a11.73,11.73,0,0,0-4.4-.59,9.28,9.28,0,0,0-3.72.62,3.79,3.79,0,0,0-2,1.82,8,8,0,0,0-.67,2.61,38.93,38.93,0,0,0-.17,4,38,38,0,0,0,.17,4,9.5,9.5,0,0,0,.61,2.58,3.78,3.78,0,0,0,2,1.86,10.19,10.19,0,0,0,3.78.57A12,12,0,0,0,148.24,52.84Z"/><path class="cls-2" d="M185.89,46.55H167.44a16.71,16.71,0,0,0,.47,4.79,3.12,3.12,0,0,0,2.21,2,22.34,22.34,0,0,0,5.9.55,85.13,85.13,0,0,0,8.75-.55v4.87a35,35,0,0,1-4.65.61c-1.88.15-3.7.22-5.48.22q-5.92,0-8.7-1.36a6.55,6.55,0,0,1-3.6-4.29,34.73,34.73,0,0,1-.83-8.86,34,34,0,0,1,.83-8.65,7.08,7.08,0,0,1,3.55-4.49q2.7-1.5,8.36-1.5c3.62,0,6.26.5,7.9,1.5a6.59,6.59,0,0,1,3.1,4.35,44.38,44.38,0,0,1,.64,8.79ZM169.74,35.6a3.07,3.07,0,0,0-1.81,2,18.65,18.65,0,0,0-.49,4.66h12.85v-.11a14.43,14.43,0,0,0-.55-4.66,3.18,3.18,0,0,0-1.8-2,11.12,11.12,0,0,0-3.85-.5A11.79,11.79,0,0,0,169.74,35.6Z"/><path class="cls-2" d="M192.73,57.13q-2.13-1.89-2.13-6.43a13.78,13.78,0,0,1,.77-5.18A5,5,0,0,1,194,42.81a13.21,13.21,0,0,1,5.32-.87q3.15,0,9.59.23V41a9.86,9.86,0,0,0-.59-4,2.88,2.88,0,0,0-2.12-1.53,30.74,30.74,0,0,0-5.38-.33c-1.22,0-2.72.06-4.5.17s-3.07.24-3.92.39V30.7a60.18,60.18,0,0,1,10.47-.84q5.21,0,7.73,1.14A6,6,0,0,1,214,34.46a21.08,21.08,0,0,1,.83,6.71v17.4h-5.38l-.22-3.6h-.33a6.27,6.27,0,0,1-3.76,3.23,18.52,18.52,0,0,1-5.71.81C196.38,59,194.15,58.39,192.73,57.13Zm13.05-3.63a3.81,3.81,0,0,0,2.16-1.64,9.62,9.62,0,0,0,1-4.87v-.83h-8.09a10.33,10.33,0,0,0-2.85.28,1.89,1.89,0,0,0-1.28,1.11,6.7,6.7,0,0,0-.37,2.54,5.65,5.65,0,0,0,.43,2.52,2.21,2.21,0,0,0,1.57,1.08,17.34,17.34,0,0,0,3.72.28A12,12,0,0,0,205.78,53.5Z"/><path class="cls-2" d="M240,58.57,231.1,47h-3V58.57h-5.87V17.4h5.87V41.72h3l9-11.41h6.49L235.81,43.94l11,14.63Z"/><path class="cls-2" d="M273.87,46.55H255.42a17.08,17.08,0,0,0,.47,4.79,3.16,3.16,0,0,0,2.23,2,22.15,22.15,0,0,0,5.89.55,85.3,85.3,0,0,0,8.76-.55v4.87a35.64,35.64,0,0,1-4.66.61c-1.88.15-3.71.22-5.48.22q-5.92,0-8.71-1.36a6.6,6.6,0,0,1-3.6-4.29,35.29,35.29,0,0,1-.82-8.86,34.53,34.53,0,0,1,.82-8.65,7.15,7.15,0,0,1,3.55-4.49q2.72-1.5,8.37-1.5,5.43,0,7.9,1.5a6.59,6.59,0,0,1,3.1,4.35,44.55,44.55,0,0,1,.63,8.79ZM257.72,35.6a3.1,3.1,0,0,0-1.8,2,18.55,18.55,0,0,0-.5,4.66h12.86v-.11a14.72,14.72,0,0,0-.55-4.66,3.16,3.16,0,0,0-1.81-2,11,11,0,0,0-3.85-.5A11.87,11.87,0,0,0,257.72,35.6Z"/><path class="cls-3" d="M287,58.79c-2.54-.14-4.78-.35-6.71-.61V52.7q6.83.66,11.86.66a32.51,32.51,0,0,0,4.65-.25,6.7,6.7,0,0,0,2.61-.86,2.55,2.55,0,0,0,1.16-1.58,11.45,11.45,0,0,0,.28-2.91,12.67,12.67,0,0,0-.25-3,2.09,2.09,0,0,0-1.05-1.38,7.14,7.14,0,0,0-2.69-.61l-9.08-1.06A11.56,11.56,0,0,1,282.38,40a6.62,6.62,0,0,1-2.55-3.47,18.34,18.34,0,0,1-.69-5.48c0-3.14.57-5.52,1.69-7.13a7.94,7.94,0,0,1,4.63-3.18A30.61,30.61,0,0,1,293.1,20c2.15,0,4.34.1,6.59.3a49.19,49.19,0,0,1,5.49.76v5.32a51.17,51.17,0,0,0-5.1-.53c-2-.13-3.95-.19-5.76-.19a37.69,37.69,0,0,0-4.65.22,7.13,7.13,0,0,0-2.66.78,2.48,2.48,0,0,0-1.28,1.46,9.72,9.72,0,0,0-.27,2.69,10.13,10.13,0,0,0,.27,2.85,2,2,0,0,0,1.14,1.25,10.22,10.22,0,0,0,2.8.61l9.14,1a13.79,13.79,0,0,1,4.63,1.14,5.52,5.52,0,0,1,2.63,3,17.39,17.39,0,0,1,1,6.76c0,3.37-.54,5.88-1.61,7.56a7.33,7.33,0,0,1-4.32,3.28,28.53,28.53,0,0,1-7.21.74Q290.78,59,287,58.79Z"/><path class="cls-3" d="M316.4,57.76a5.9,5.9,0,0,1-3.35-4.1,42.06,42.06,0,0,1-.72-9.27,42,42,0,0,1,.72-9.24,5.85,5.85,0,0,1,3.35-4.06Q319,29.86,325,29.86c4,0,6.87.41,8.63,1.23A5.85,5.85,0,0,1,337,35.15a42.63,42.63,0,0,1,.72,9.24,42.7,42.7,0,0,1-.72,9.27,5.9,5.9,0,0,1-3.35,4.1C331.88,58.59,329,59,325,59S318.16,58.59,316.4,57.76Zm13.44-4.59a3,3,0,0,0,1.63-2.36,42.8,42.8,0,0,0,.31-6.42,42.11,42.11,0,0,0-.31-6.4,2.87,2.87,0,0,0-1.63-2.3,19,19,0,0,0-9.64,0,2.88,2.88,0,0,0-1.64,2.3,44,44,0,0,0-.3,6.4,44.69,44.69,0,0,0,.3,6.42,3,3,0,0,0,1.64,2.36,18.75,18.75,0,0,0,9.64,0Z"/><path class="cls-3" d="M346.57,35.52h-5.65V30.31h5.65V27.1q0-4.61,1.14-6.6A5.18,5.18,0,0,1,351.37,18a45.12,45.12,0,0,1,8.22-.52v4.7a31.2,31.2,0,0,0-4.68.25A2.79,2.79,0,0,0,353,23.46a4.9,4.9,0,0,0-.52,2.59v4.26h7.14v5.21h-7.14v23h-5.88Z"/><path class="cls-3" d="M366.63,58.57v-23H361V30.31h5.66v-8.2h5.87v8.2h6.59v5.21H372.5v23Z"/><path class="cls-3" d="M407.75,58.57l-5.66-18.06h-.38l-5.55,18.06h-7L380.6,30.31h6l6,21.17h.44l6.2-21.17h5.49L411,51.48h.44l5.93-21.17h5.93l-8.59,28.26Z"/><path class="cls-3" d="M427.78,57.13q-2.14-1.89-2.14-6.43a13.56,13.56,0,0,1,.78-5.18,5,5,0,0,1,2.66-2.71,13.15,13.15,0,0,1,5.32-.87c2.1,0,5.3.08,9.58.23V41a9.69,9.69,0,0,0-.59-4,2.88,2.88,0,0,0-2.13-1.53,30.52,30.52,0,0,0-5.37-.33c-1.22,0-2.72.06-4.49.17s-3.08.24-3.93.39V30.7a60.18,60.18,0,0,1,10.47-.84q5.21,0,7.73,1.14A5.93,5.93,0,0,1,449,34.46a20.8,20.8,0,0,1,.83,6.71v17.4h-5.37l-.22-3.6h-.34a6.23,6.23,0,0,1-3.77,3.23,18.41,18.41,0,0,1-5.7.81C431.42,59,429.19,58.39,427.78,57.13Zm13-3.63A3.81,3.81,0,0,0,443,51.86,9.52,9.52,0,0,0,444,47v-.83h-8.09a10.43,10.43,0,0,0-2.85.28,1.89,1.89,0,0,0-1.28,1.11,6.73,6.73,0,0,0-.36,2.54,5.84,5.84,0,0,0,.41,2.52,2.25,2.25,0,0,0,1.58,1.08,17.4,17.4,0,0,0,3.72.28A12,12,0,0,0,440.82,53.5Z"/><path class="cls-3" d="M457.27,30.31h5.38l.22,5.05h.45a7,7,0,0,1,3.24-4.31,12.91,12.91,0,0,1,6-1.19V36a12.52,12.52,0,0,0-5.79,1.09A5.84,5.84,0,0,0,464,40.42a20.33,20.33,0,0,0-.81,6.4V58.57h-5.87Z"/><path class="cls-3" d="M500,46.55H481.55a17.18,17.18,0,0,0,.46,4.79,3.14,3.14,0,0,0,2.22,2,22.38,22.38,0,0,0,5.91.55,85.29,85.29,0,0,0,8.75-.55v4.87a35.46,35.46,0,0,1-4.65.61c-1.89.15-3.71.22-5.49.22-3.95,0-6.86-.45-8.7-1.36a6.55,6.55,0,0,1-3.6-4.29,35.1,35.1,0,0,1-.84-8.86,34.36,34.36,0,0,1,.84-8.65A7.13,7.13,0,0,1,480,31.36c1.82-1,4.6-1.5,8.37-1.5,3.62,0,6.26.5,7.9,1.5a6.56,6.56,0,0,1,3.1,4.35A43.61,43.61,0,0,1,500,44.5ZM483.85,35.6a3.06,3.06,0,0,0-1.8,2,18.08,18.08,0,0,0-.5,4.66H494.4v-.11a14.43,14.43,0,0,0-.55-4.66,3.2,3.2,0,0,0-1.8-2,11.12,11.12,0,0,0-3.85-.5A11.79,11.79,0,0,0,483.85,35.6Z"/><path class="cls-2" d="M38.86,53.37q-6.61-7-6.73-14.25t5.09-15.49c.44-.71,1-1.47,1.51-2.2l-7.5-8c-2.44-2.61-3.91-4.79-4.38-6.57s0-3.75,1.34-5.93c.16-.26.41-.6.62-.92L6.36.07C6.21.32,6,.6,5.83.84Q.64,9,.74,16.33T7.47,30.59L24.62,48.87c2.47,2.4,3.84,4.53,4.14,6.37s-.38,3.93-2,6.24A95,95,0,0,1,18,71.67a89.94,89.94,0,0,1-9.72,9.08A15,15,0,0,1,.75,84,6.37,6.37,0,0,1,0,84l.63,3,26.29,0c2-1.94,4.06-3.93,6.2-6.16a163.11,163.11,0,0,0,15-17.61Z"/><path class="cls-3" d="M86.73,65.87c-.82-3.77-3.13-7.53-6.85-11.27L62.61,36.24c-2.44-2.6-3.9-4.78-4.38-6.57s0-3.75,1.33-5.93A76.19,76.19,0,0,1,67.87,14a74.06,74.06,0,0,1,9-8.33A13.55,13.55,0,0,1,84.33,2.9L83.72,0,57.39,0c-1.52,1.48-3,2.89-4.59,4.53A137.37,137.37,0,0,0,38.73,21.43l9.76,10.39q5.61,5.61,6.86,11.27T52,57.07a58.48,58.48,0,0,1-3.92,6.13L56,71.64c2.48,2.42,3.85,4.54,4.14,6.39s-.37,3.91-2,6.24C57.66,85,57,86,56.14,87l22.64,0a58.34,58.34,0,0,0,4.59-7.07Q88,71.53,86.73,65.87Z"/></g></g></svg>