<svg xmlns="http://www.w3.org/2000/svg" viewBox="0 0 101.8 124.17"><defs><style>.cls-1{fill:#61dafb;}</style></defs><title>Asset 1</title><g id="Layer_2" data-name="Layer 2"><g id="Layer_1-2" data-name="Layer 1"><circle class="cls-1" cx="50.9" cy="45.4" r="9.3"/><path class="cls-1" d="M50.9,79.6c7.3,7.1,14.5,11.3,20.3,11.3a10,10,0,0,0,5.2-1.3c5.2-3,7.1-10.5,5.3-21.2-.3-1.9-.7-3.8-1.2-5.8,2-.6,3.8-1.2,5.6-1.8,10.1-3.9,15.7-9.3,15.7-15.2S96.2,34.2,86.1,30.4a45.87,45.87,0,0,0-5.6-1.8c.5-2,.9-3.9,1.2-5.8,1.7-10.9-.2-18.5-5.4-21.5A10,10,0,0,0,71.1,0c-5.7,0-13,4.2-20.3,11.3C43.6,4.2,36.4,0,30.6,0a10,10,0,0,0-5.2,1.3c-5.2,3-7.1,10.5-5.3,21.2.3,1.9.7,3.8,1.2,5.8-2,.6-3.8,1.2-5.6,1.8C5.6,34,0,39.4,0,45.3S5.6,56.7,15.7,60.5a45.87,45.87,0,0,0,5.6,1.8c-.5,2-.9,3.9-1.2,5.8-1.7,10.7.2,18.3,5.3,21.2a10,10,0,0,0,5.2,1.3c5.8.2,13-4,20.3-11ZM45.3,66.1c1.8.1,3.7.1,5.6.1s3.8,0,5.6-.1c-1.8,2.4-3.7,4.6-5.6,6.7C49,70.7,47.1,68.5,45.3,66.1ZM32.9,55.8c1,1.7,1.9,3.3,3,4.9-3.1-.4-6-.9-8.8-1.5.9-2.7,1.9-5.5,3.1-8.3C31,52.5,31.9,54.2,32.9,55.8ZM27.1,31.7c2.8-.6,5.7-1.1,8.8-1.5-1,1.6-2,3.2-3,4.9s-1.9,3.3-2.7,5A66.85,66.85,0,0,1,27.1,31.7Zm5.5,13.7c1.3-2.7,2.7-5.4,4.3-8.1s3.2-5.2,4.9-7.8c3-.2,6-.3,9.1-.3s6.2.1,9.1.3c1.8,2.6,3.4,5.2,4.9,7.8s3,5.4,4.3,8.1c-1.3,2.7-2.7,5.4-4.3,8.1s-3.2,5.2-4.9,7.8c-3,.2-6,.3-9.1.3s-6.2-.1-9.1-.3c-1.8-2.6-3.4-5.2-4.9-7.8S33.9,48.1,32.6,45.4ZM71.7,40,69,35c-1-1.7-1.9-3.3-3-4.9,3.1.4,6,.9,8.8,1.5C73.9,34.4,72.9,37.2,71.7,40Zm0,10.8c1.2,2.8,2.2,5.6,3.1,8.3-2.8.6-5.7,1.1-8.8,1.5,1-1.6,2-3.2,3-4.9C69.9,54.2,70.8,52.5,71.7,50.8ZM74,85.5a5.43,5.43,0,0,1-2.9.7c-4.9,0-11-4-17-10a104.7,104.7,0,0,0,8.5-10.5A91.58,91.58,0,0,0,76,63.6,51.69,51.69,0,0,1,77.1,69C78.5,77.5,77.4,83.6,74,85.5Zm5.2-52.7C90.4,36,97.1,40.9,97.1,45.4c0,3.9-4.6,7.8-12.7,10.9-1.6.6-3.4,1.2-5.2,1.7a105.1,105.1,0,0,0-4.9-12.6A90.57,90.57,0,0,0,79.2,32.8Zm-8-28.2a5.66,5.66,0,0,1,2.9.7c3.3,1.9,4.5,7.9,3.1,16.5-.3,1.7-.7,3.5-1.1,5.4a129.77,129.77,0,0,0-13.4-2.1,92.39,92.39,0,0,0-8.5-10.5C60.2,8.7,66.3,4.6,71.2,4.6ZM56.5,24.7c-1.8-.1-3.7-.1-5.6-.1s-3.8,0-5.6.1c1.8-2.4,3.7-4.6,5.6-6.7C52.8,20.1,54.7,22.4,56.5,24.7ZM27.8,5.3a5.43,5.43,0,0,1,2.9-.7c4.9,0,11,4,17,10a104.7,104.7,0,0,0-8.5,10.5,91.58,91.58,0,0,0-13.4,2.1,51.69,51.69,0,0,1-1.1-5.4C23.3,13.3,24.4,7.3,27.8,5.3ZM22.6,58C11.4,54.8,4.7,49.9,4.7,45.4c0-3.9,4.6-7.8,12.7-10.9,1.6-.6,3.4-1.2,5.2-1.7a105.1,105.1,0,0,0,4.9,12.6A95.68,95.68,0,0,0,22.6,58Zm2.1,11c.3-1.7.7-3.5,1.1-5.4a129.77,129.77,0,0,0,13.4,2.1,92.39,92.39,0,0,0,8.5,10.5c-6,5.9-12.1,10-17,10a5.66,5.66,0,0,1-2.9-.7C24.4,83.6,23.3,77.5,24.7,69Zm-4.2,41.2a8.15,8.15,0,0,0,1.1-8.7A7,7,0,0,0,14.8,97c-3.7-.1-7.5,0-11.2,0H2.9v25.9h3v-9.8h4.7a1.51,1.51,0,0,1,1.4.7l6,9.3c.1.2.4.5.6.5h3.9c-2.4-3.7-4.7-7.2-7.1-10.8A7.26,7.26,0,0,0,20.5,110.2ZM5.9,110v-9.9H7c2.3,0,4.7-.1,7,.1a4.72,4.72,0,0,1,4.6,4.9,5,5,0,0,1-4.9,4.9C11.3,110.1,8.9,110,5.9,110Zm38.7,1.3c-1.6-7-8-8.8-12.9-6.6-3.8,1.7-5.5,5-5.6,9.1a9.7,9.7,0,0,0,3.2,8c2.7,2.4,6,2.7,9.4,2.1a9.17,9.17,0,0,0,4.9-2.7c-.5-.7-1-1.4-1.5-2-2.8,2.4-5.9,3.2-9.3,1.6-2.2-1.1-3.3-3.8-3.5-5.8H44.8v-1.3A6.17,6.17,0,0,0,44.6,111.3Zm-15.1,1.6c-.3-3,2.7-6.2,6-6.2,3.8-.1,6.2,2.2,6.3,6.2Zm30.7-8.7a17.82,17.82,0,0,0-4.6-.3,9.51,9.51,0,0,0-6.2,3.1c.5.7.9,1.4,1.5,2.2a2.65,2.65,0,0,1,.6-.5,7.25,7.25,0,0,1,5.8-2.1c1.8.1,3.5.7,4,2.5a21.19,21.19,0,0,1,.4,4.4.59.59,0,0,1-.5-.2,8.64,8.64,0,0,0-8-1.7,6,6,0,0,0-4.6,5.5,6.11,6.11,0,0,0,3.9,6.5,9,9,0,0,0,5.4.3c1.4-.3,2-1.1,4-2.2V123h2.8c0-4,.1-8.9,0-13.5C64.7,106.6,63,104.8,60.2,104.2Zm1.4,12.6a2.72,2.72,0,0,0,0,.9c0,2.1-.5,2.8-2.5,3.6a6.63,6.63,0,0,1-4.4.2,3.93,3.93,0,0,1-2.9-3.7,3.87,3.87,0,0,1,2.7-3.9,6.52,6.52,0,0,1,6.3,1.1A1.68,1.68,0,0,1,61.6,116.8Zm15.6-9.9a5.93,5.93,0,0,1,6.8,1.9l.3.2c.7-.6,1.3-1.2,2.1-1.9a4.17,4.17,0,0,1-.6-.8c-2.9-3.1-8.6-3.5-12.1-1-4.9,3.6-4.8,10.6-2.4,14.3,2.3,3.5,5.6,4.7,9.5,4.2a8.43,8.43,0,0,0,5.7-3.3c-.7-.6-1.4-1.2-2.1-1.9a1.76,1.76,0,0,0-.4.5,6.13,6.13,0,0,1-9.6-.5,7.91,7.91,0,0,1-1.3-6.3,5.86,5.86,0,0,1,4.1-5.4ZM98,120.5a1.24,1.24,0,0,0-.3.2,2.53,2.53,0,0,1-2.5.4c-.9-.4-1-1.2-1.1-2V107.7c0-.2,0,.2.1-.8H98v-3H94v-5H91v5.4H88.4c-.2,0-.5.2-.5.4a16,16,0,0,0,0,2.2h3.2v12.8c0,1.6.4,3,1.8,3.8a5.79,5.79,0,0,0,5.7-.4c.2-.1.3-.5.3-.6C98.6,121.9,98.3,121.2,98,120.5Z"/></g></g></svg>