<svg xmlns="http://www.w3.org/2000/svg" viewBox="0 0 110.4 117.8"><defs><style>.cls-1{fill:#61dafb;}</style></defs><title>Asset 1</title><g id="Layer_2" data-name="Layer 2"><g id="Layer_1-2" data-name="Layer 1"><circle class="cls-1" cx="54.52" cy="45.4" r="9.3"/><path class="cls-1" d="M56.46,79.6c7.3,7.1,14.5,11.3,20.3,11.3A10,10,0,0,0,82,89.6c5.2-3,7.1-10.5,5.3-21.2-.3-1.9-.7-3.8-1.2-5.8,2-.6,3.8-1.2,5.6-1.8,10.1-3.9,15.7-9.3,15.7-15.2s-5.6-11.4-15.7-15.2a45.87,45.87,0,0,0-5.6-1.8c.5-2,.9-3.9,1.2-5.8,1.7-10.9-.2-18.5-5.4-21.5A10,10,0,0,0,76.66,0c-5.7,0-13,4.2-20.3,11.3C49.16,4.2,42,0,36.16,0A10,10,0,0,0,31,1.3c-5.2,3-7.1,10.5-5.3,21.2.3,1.9.7,3.8,1.2,5.8-2,.6-3.8,1.2-5.6,1.8C11.16,34,5.56,39.4,5.56,45.3s5.6,11.4,15.7,15.2a45.87,45.87,0,0,0,5.6,1.8c-.5,2-.9,3.9-1.2,5.8-1.7,10.7.2,18.3,5.3,21.2a10,10,0,0,0,5.2,1.3c5.8.2,13-4,20.3-11Zm-5.6-13.5c1.8.1,3.7.1,5.6.1s3.8,0,5.6-.1c-1.8,2.4-3.7,4.6-5.6,6.7C54.56,70.7,52.66,68.5,50.86,66.1ZM38.46,55.8c1,1.7,1.9,3.3,3,4.9-3.1-.4-6-.9-8.8-1.5.9-2.7,1.9-5.5,3.1-8.3C36.56,52.5,37.46,54.2,38.46,55.8Zm-5.8-24.1c2.8-.6,5.7-1.1,8.8-1.5-1,1.6-2,3.2-3,4.9s-1.9,3.3-2.7,5A66.85,66.85,0,0,1,32.66,31.7Zm5.5,13.7c1.3-2.7,2.7-5.4,4.3-8.1s3.2-5.2,4.9-7.8c3-.2,6-.3,9.1-.3s6.2.1,9.1.3c1.8,2.6,3.4,5.2,4.9,7.8s3,5.4,4.3,8.1c-1.3,2.7-2.7,5.4-4.3,8.1s-3.2,5.2-4.9,7.8c-3,.2-6,.3-9.1.3s-6.2-.1-9.1-.3c-1.8-2.6-3.4-5.2-4.9-7.8S39.46,48.1,38.16,45.4ZM77.26,40l-2.7-5c-1-1.7-1.9-3.3-3-4.9,3.1.4,6,.9,8.8,1.5C79.46,34.4,78.46,37.2,77.26,40Zm0,10.8c1.2,2.8,2.2,5.6,3.1,8.3-2.8.6-5.7,1.1-8.8,1.5,1-1.6,2-3.2,3-4.9C75.46,54.2,76.36,52.5,77.26,50.8Zm2.3,34.7a5.43,5.43,0,0,1-2.9.7c-4.9,0-11-4-17-10a104.7,104.7,0,0,0,8.5-10.5,91.58,91.58,0,0,0,13.4-2.1,51.69,51.69,0,0,1,1.1,5.4C84.06,77.5,83,83.6,79.56,85.5Zm5.2-52.7c11.2,3.2,17.9,8.1,17.9,12.6,0,3.9-4.6,7.8-12.7,10.9-1.6.6-3.4,1.2-5.2,1.7a105.1,105.1,0,0,0-4.9-12.6A90.57,90.57,0,0,0,84.76,32.8Zm-8-28.2a5.66,5.66,0,0,1,2.9.7c3.3,1.9,4.5,7.9,3.1,16.5-.3,1.7-.7,3.5-1.1,5.4a129.77,129.77,0,0,0-13.4-2.1,92.39,92.39,0,0,0-8.5-10.5C65.76,8.7,71.86,4.6,76.76,4.6ZM62.06,24.7c-1.8-.1-3.7-.1-5.6-.1s-3.8,0-5.6.1c1.8-2.4,3.7-4.6,5.6-6.7C58.36,20.1,60.26,22.4,62.06,24.7ZM33.36,5.3a5.43,5.43,0,0,1,2.9-.7c4.9,0,11,4,17,10a104.7,104.7,0,0,0-8.5,10.5,91.58,91.58,0,0,0-13.4,2.1,51.69,51.69,0,0,1-1.1-5.4C28.86,13.3,30,7.3,33.36,5.3ZM28.16,58c-11.2-3.2-17.9-8.1-17.9-12.6,0-3.9,4.6-7.8,12.7-10.9,1.6-.6,3.4-1.2,5.2-1.7a105.1,105.1,0,0,0,4.9,12.6A95.68,95.68,0,0,0,28.16,58Zm2.1,11c.3-1.7.7-3.5,1.1-5.4a129.77,129.77,0,0,0,13.4,2.1,92.39,92.39,0,0,0,8.5,10.5c-6,5.9-12.1,10-17,10a5.66,5.66,0,0,1-2.9-.7C30,83.6,28.86,77.5,30.26,69Z" transform="translate(-1.95)"/><path class="cls-1" d="M2,103.77H6.42c2.9,0,5,1,5,3.88s-2.09,4.08-5,4.08H3.76v5.82H2Zm4.2,6.53c2.22,0,3.45-.87,3.45-2.65s-1.23-2.46-3.45-2.46H3.76v5.11Zm-.09.94,1.42-.9,4.35,7.21H9.77Z" transform="translate(-1.95)"/><path class="cls-1" d="M13.15,112.46c0-3.32,2.32-5.37,4.75-5.37,2.69,0,4.21,1.87,4.21,4.79a5.46,5.46,0,0,1-.08,1H14.92a3.45,3.45,0,0,0,3.5,3.57,4.71,4.71,0,0,0,2.63-.82l.64,1.13a6.3,6.3,0,0,1-3.48,1.06A5,5,0,0,1,13.15,112.46Zm7.38-.84c0-2-1-3.15-2.6-3.15a3.18,3.18,0,0,0-3,3.15Z" transform="translate(-1.95)"/><path class="cls-1" d="M23.74,114.9c0-2.22,2-3.33,6.49-3.81,0-1.31-.46-2.58-2.18-2.58a5.92,5.92,0,0,0-3.15,1.1l-.7-1.19a8,8,0,0,1,4.15-1.33c2.58,0,3.67,1.66,3.67,4.2v6.26H30.54l-.15-1.22h-.06a5.7,5.7,0,0,1-3.49,1.47A2.83,2.83,0,0,1,23.74,114.9Zm6.49.16v-2.83c-3.54.41-4.74,1.24-4.74,2.55,0,1.16.82,1.63,1.85,1.63A4.42,4.42,0,0,0,30.23,115.06Z" transform="translate(-1.95)"/><path class="cls-1" d="M34.57,112.46a5,5,0,0,1,5.08-5.37,4.48,4.48,0,0,1,3.09,1.2l-.91,1.14a3.11,3.11,0,0,0-2.1-.9c-1.91,0-3.31,1.59-3.31,3.93s1.32,3.9,3.26,3.9a3.88,3.88,0,0,0,2.48-1l.78,1.15a5.23,5.23,0,0,1-3.42,1.3C36.71,117.8,34.57,115.84,34.57,112.46Z" transform="translate(-1.95)"/><path class="cls-1" d="M45.35,114.39v-5.64H43.78v-1.31l1.65-.1.21-2.86h1.49v2.86H50v1.41H47.13v5.67c0,1.25.42,2,1.64,2a3.55,3.55,0,0,0,1.2-.27l.35,1.3a6.43,6.43,0,0,1-2,.38C46.11,117.8,45.35,116.42,45.35,114.39Z" transform="translate(-1.95)"/><path class="cls-1" d="M56.89,103.77h1.87l5.16,8.66,1.54,2.86h.09c-.09-1.39-.23-3-.23-4.39v-7.13H67v13.78H65.17L60,108.88,58.47,106h-.09c.09,1.4.23,2.87.23,4.31v7.21H56.89Z" transform="translate(-1.95)"/><path class="cls-1" d="M70.12,114.9c0-2.22,2-3.33,6.48-3.81,0-1.31-.45-2.58-2.18-2.58a5.92,5.92,0,0,0-3.15,1.1l-.7-1.19a8,8,0,0,1,4.15-1.33c2.58,0,3.67,1.66,3.67,4.2v6.26H76.91l-.15-1.22H76.7a5.68,5.68,0,0,1-3.49,1.47A2.82,2.82,0,0,1,70.12,114.9Zm6.48.16v-2.83c-3.54.41-4.73,1.24-4.73,2.55,0,1.16.81,1.63,1.85,1.63A4.4,4.4,0,0,0,76.6,115.06Z" transform="translate(-1.95)"/><path class="cls-1" d="M81.74,114.39v-5.64H80.17v-1.31l1.65-.1.21-2.86h1.5v2.86h2.86v1.41H83.53v5.67c0,1.25.41,2,1.63,2a3.55,3.55,0,0,0,1.2-.27l.35,1.3a6.43,6.43,0,0,1-2,.38C82.5,117.8,81.74,116.42,81.74,114.39Z" transform="translate(-1.95)"/><path class="cls-1" d="M88.44,104.13a1.24,1.24,0,0,1,2.47,0,1.24,1.24,0,0,1-2.47,0Zm.33,3.21h1.79v10.21H88.77Z" transform="translate(-1.95)"/><path class="cls-1" d="M92.6,107.34h1.84l2,5.8c.31,1,.66,2,1,3h.09c.31-1,.66-2,1-3l2-5.8h1.75l-3.73,10.21H96.41Z" transform="translate(-1.95)"/><path class="cls-1" d="M103.39,112.46c0-3.32,2.32-5.37,4.75-5.37,2.69,0,4.21,1.87,4.21,4.79a5.46,5.46,0,0,1-.08,1h-7.11a3.45,3.45,0,0,0,3.51,3.57,4.7,4.7,0,0,0,2.62-.82l.64,1.13a6.3,6.3,0,0,1-3.48,1.06A5,5,0,0,1,103.39,112.46Zm7.38-.84c0-2-1-3.15-2.6-3.15a3.19,3.19,0,0,0-3,3.15Z" transform="translate(-1.95)"/></g></g></svg>